<?xml version="1.0" encoding="UTF-8"?>
<svg xmlns="http://www.w3.org/2000/svg" version="1.1" viewBox="0 0 1024 1024">
  <defs>
    <style>
      .cls-1, .cls-2, .cls-3 {
        isolation: isolate;
      }

      .cls-4, .cls-3 {
        fill: #fff;
      }

      .cls-2 {
        fill: #1e3c72;
        opacity: .9;
      }

      .cls-5 {
        fill: #f44;
      }

      .cls-6 {
        fill: none;
        stroke: #2a5298;
        stroke-width: 6px;
      }

      .cls-3 {
        opacity: .3;
      }
    </style>
  </defs>
  <!-- Generator: Adobe Illustrator 28.7.1, SVG Export Plug-In . SVG Version: 1.2.0 Build 142)  -->
  <g>
    <g id="Layer_1">
      <g id="Layer_1-2" data-name="Layer_1">
        <g id="Layer_1-2">
          <g id="FrontLayer">
            <g id="stopwatch-button">
              <g>
                <circle class="cls-4" cx="685.4" cy="279" r="45"/>
                <circle class="cls-6" cx="685.4" cy="279" r="45"/>
              </g>
              <circle class="cls-5" cx="685.4" cy="279" r="35"/>
              <circle class="cls-3" cx="685.4" cy="279" r="25"/>
            </g>
            <g id="digital-display">
              <rect class="cls-2" x="357" y="643.5" width="310" height="93" rx="12.4" ry="12.4"/>
              <g class="cls-1">
                <g class="cls-1">
                  <g class="cls-1">
                    <path class="cls-4" d="M377.2,685.8c0-13.2,5.1-20.5,14.3-20.5s14.1,7.3,14.1,20.5-5.1,20.5-14.1,20.5-14.3-7.3-14.3-20.5ZM383.7,688.1l14.6-10.7c-1.2-4.3-3.4-6.7-6.8-6.7-5.1,0-7.7,5.3-7.7,15s0,1.5,0,2.3ZM399,685.8v-2.3l-14.4,10.7c1.2,4.3,3.4,6.7,6.8,6.7,5,0,7.7-5.3,7.7-15h-.2Z"/>
                    <path class="cls-4" d="M411.6,685.8c0-13.2,5.1-20.5,14.3-20.5s14.1,7.3,14.1,20.5-5.1,20.5-14.1,20.5-14.3-7.3-14.3-20.5ZM418.1,688.1l14.6-10.7c-1.2-4.3-3.4-6.7-6.8-6.7-5.1,0-7.7,5.3-7.7,15s0,1.5,0,2.3ZM433.6,685.8v-2.3l-14.4,10.7c1.2,4.3,3.4,6.7,6.8,6.7,5,0,7.7-5.3,7.7-15h-.2Z"/>
                    <path class="cls-4" d="M454.7,679.5c0-3.1,2.5-5.7,5.6-5.7s5.6,2.5,5.6,5.7-2.5,5.7-5.6,5.7-5.6-2.6-5.6-5.7ZM454.7,700.2c0-3.1,2.5-5.7,5.6-5.7s5.6,2.5,5.6,5.7-2.5,5.7-5.6,5.7-5.6-2.6-5.6-5.7Z"/>
                    <path class="cls-4" d="M481.9,705.5v-5.6h11v-27h-.5l-10.5,7v-6.4l11-7.3h6.4v33.8h10.5v5.6h-27.9v-.2Z"/>
                    <path class="cls-4" d="M515.1,685.8c0-13.2,5.1-20.5,14.3-20.5s14.1,7.3,14.1,20.5-5.1,20.5-14.1,20.5-14.3-7.3-14.3-20.5ZM521.6,688.1l14.6-10.7c-1.2-4.3-3.4-6.7-6.8-6.7-5.1,0-7.7,5.3-7.7,15s0,1.5,0,2.3ZM537,685.8v-2.3l-14.4,10.7c1.2,4.3,3.4,6.7,6.8,6.7,5,0,7.7-5.3,7.7-15h-.2Z"/>
                    <path class="cls-4" d="M558.2,679.5c0-3.1,2.5-5.7,5.6-5.7s5.6,2.5,5.6,5.7-2.5,5.7-5.6,5.7-5.6-2.6-5.6-5.7ZM558.2,700.2c0-3.1,2.5-5.7,5.6-5.7s5.6,2.5,5.6,5.7-2.5,5.7-5.6,5.7-5.6-2.6-5.6-5.7Z"/>
                    <path class="cls-4" d="M593.5,682.7h4.5c4.2,0,6.8-2.5,6.8-6s-2.6-5.9-6.8-5.9-6.8,2.3-7.1,6.2h-6c.3-7.1,5.4-11.5,13.3-11.5s12.9,4.2,12.9,10.4-2.6,8.1-6.8,9v.5c5.3.6,8.4,4.2,8.4,9.5s-5.9,11.6-14.3,11.6-13.8-4.6-14.3-11.8h6.2c.3,3.7,3.4,6,7.9,6s7.9-2.5,7.9-6.4-3.1-6.5-8.1-6.5h-4.6v-5.1h.2Z"/>
                    <path class="cls-4" d="M618.6,685.8c0-13.2,5.1-20.5,14.3-20.5s14.1,7.3,14.1,20.5-5.1,20.5-14.1,20.5-14.3-7.3-14.3-20.5ZM625.1,688.1l14.6-10.7c-1.2-4.3-3.4-6.7-6.8-6.7-5.1,0-7.7,5.3-7.7,15s0,1.5,0,2.3ZM640.5,685.8v-2.3l-14.4,10.7c1.2,4.3,3.4,6.7,6.8,6.7,5,0,7.7-5.3,7.7-15h-.2Z"/>
                  </g>
                </g>
              </g>
            </g>
          </g>
        </g>
      </g>
    </g>
  </g>
</svg>